<?xml version="1.0" standalone="no"?><!DOCTYPE svg PUBLIC "-//W3C//DTD SVG 1.1//EN" "http://www.w3.org/Graphics/SVG/1.1/DTD/svg11.dtd"><svg t="1602739741110" class="icon" viewBox="0 0 1024 1024" version="1.1" xmlns="http://www.w3.org/2000/svg" p-id="557" xmlns:xlink="http://www.w3.org/1999/xlink" width="200" height="200"><defs><style type="text/css"></style></defs><path d="M132.8 673.7c4.1 20.9 9.1 41.6 17.1 61.4 4.8 11.4 9.9 22.6 17 32.7 13.4 19.3 31.3 33.4 52.8 42.7 8.8 3.8 17.8 7.1 27 9.8 25.5 7.7 51.8 11.6 78.3 13.8 25.3 2.2 50.8 3.9 76.3 4.9 36.8 1.3 73.5 1.8 102.3 2.5 30.8-0.4 53.5-0.7 76-1.1 31.8-0.7 63.7-1.9 95.7-4.3 23.7-1.7 47.4-4 70.9-8.4 19.2-3.6 38.2-8.5 56.1-16.4 29.9-13.1 52.4-33.9 66-63.8 5.7-12.6 10.7-25.4 14.4-38.7 7.1-25.5 11.8-51.4 15.4-77.4 3.4-25.8 6.3-51.8 8.9-77.7 2.7-25.8 4.2-51.7 4.8-77.6 1-41.6 1.4-83.3-2.2-124.8-1.3-16-4-31.7-9-47-8.3-25.9-22.4-47.9-44.4-64.4-14.1-10.6-29.7-17.9-46.4-23.3-22.2-7.2-45.1-11.1-68.2-13.9-28.3-3.4-56.7-5.9-85.1-7.2-29.4-1.5-58.9-2.5-88.3-3.2-39.4-0.9-78.8-0.7-118.3 0.1-44.6 0.9-89 2.8-133.4 6.7-22.1 2-44.2 4.3-66 8.4-18.4 3.4-36.6 8.1-53.9 15.6-29.5 12.7-52 32.9-66 62.1-7.9 16.5-12.6 34-15 52.1-2.7 19.1-3.6 38.4-4 57.6-0.3 24.7-0.4 49.4 0 74.2 0.7 44.2 4.9 88.3 9.9 132.3 2.8 24.3 6.6 48.4 11.3 72.3z m19-240.1c0.5-21.2 1.3-42.3 2.6-63.4 1.1-18.7 3.2-37.2 8.8-55.3 7.2-22.9 19.4-42.3 39.2-56.6 11.2-8 23.6-13.7 36.7-18 14.5-4.8 29.4-7.8 44.4-9.7 20.9-2.7 41.9-5.1 62.9-7.1 14.7-1.4 29.5-2.2 44.3-2.9 24.5-1.1 48.9-2.5 73.4-2.8 36-0.4 72-0.3 108.1 0.3 27.2 0.5 54.5 2 81.8 3.5 29.1 1.6 58.3 4.5 87.2 9 18.8 2.8 37.3 6.6 54.8 13.9 21.4 8.8 39.3 22 51.7 41.9 7.3 11.5 11.9 24 15.1 37.1 3.2 13.1 4.9 26.5 5.9 40 3.4 40.2 3.8 80.4 3 120.7-0.5 23.9-2.1 47.8-4.5 71.5-1.9 19.5-3.6 38.9-6 58.2-3.9 31.5-9.1 62.9-19 93.3-3.3 10.4-7.4 20.6-12.4 30.3-12.5 24.4-31.6 41.4-56.9 51.9-15.5 6.4-31.8 10.2-48.2 12.9-28.3 4.6-56.9 6.8-85.5 8.4-39.2 2.1-78.5 3.2-117.9 3.2h-9.4v0.5c-34-0.8-67.9-1.2-101.9-2.5-24.7-1-49.5-2.8-74.1-4.9-20.6-1.8-40.8-4.6-60.8-9.6-9.9-2.5-19.5-5.8-28.6-9.9-24.7-11.3-42.7-29.3-54.3-53.6-7.8-16.1-13.1-33-17.4-50.2-5.7-23.6-9.8-47.6-12.5-71.7-2.8-27-5.6-54.1-7.8-81.1-2.8-32.3-3.3-64.8-2.7-97.3z" fill="#8098FF" p-id="558"></path><path d="M274.2 288.5c1 14.3 1.8 28.7 2.8 42.9 1.4 23.5 3 46.9 4.4 70.3 1.3 19.2 2.4 38.5 3.7 57.6 1.4 22.3 3.1 44.7 4.6 67 1.2 17.8 2.3 35.7 3.6 53.6 1.7 24.4 3.5 48.7 5.3 73.1 1.6 19.9 3 39.8 4.5 59.6 1.8 23 3.8 45.9 5.7 69 0.1 2 0.4 3.9 0.7 5.8 14.4 3.1 67.3 5.8 79.8 5.6 0.5-1.7 1-3.5 1.6-5.3 6.9-25.1 13.6-50.3 20.6-75.3 4-13.7 8.9-27 15.5-39.7 8.2-15.9 21.2-24.8 38.8-27.6 15.4-2.4 30.7-3.6 46.2-3.6 15.7 0 31.2 1.2 46.6 3.7 16.8 2.9 29.5 11.4 37.3 26.6 1.8 3.3 3.4 6.6 4.9 9.9 5.5 12.5 10 25.4 13.6 38.6 6.3 22.5 12.2 45 18.3 67.6 0.6 1.7 1.2 3.5 1.7 5.1 15.6 0.9 72.5-3.4 80.1-6 14.9-178.3 26.1-357 37.3-536.1-18.5-2.7-36.9-3.8-55.4-4.2-0.4 1.6-0.7 2.7-0.9 3.9L673 351.7c-11 49.3-23.1 98.3-36.2 147-4.3 15.8-9.5 31.4-16.6 46.2-13.7 28.6-36.6 44.3-67.9 48.6-11.6 1.7-23.5 2.2-35.2 2.3-17.2 0.1-34.3 0-51.2-3.2-21.2-3.9-38.8-13.7-52.2-30.8-6.7-8.6-11.3-18.3-15.3-28.4-6.9-17.3-11.8-35.2-16.6-53.1-18.5-71.2-34.5-142.9-50-214.8-1.4-6.2-2.9-12.4-4.4-18.9-18.7 0.4-36.9 1.6-55.3 4.1 0 1.5-0.1 2.5 0 3.4 0.6 11.6 1.5 23 2.1 34.4z" fill="#8098FF" p-id="559"></path></svg>